<svg width="24" height="20" viewBox="0 0 24 20" fill="none" xmlns="http://www.w3.org/2000/svg">
<rect x="4.5" y="19" width="18" height="2" rx="1" transform="rotate(-90 4.5 19)" fill="#C3DBCD"/>
<path fill-rule="evenodd" clip-rule="evenodd" d="M4.79289 10.7071C4.40237 10.3166 4.40237 9.68343 4.79289 9.2929L8.65685 5.42894C9.04738 5.03842 9.68054 5.03842 10.0711 5.42894C10.4616 5.81947 10.4616 6.45263 10.0711 6.84315L7.91421 9.00001L16.0858 9.00001L13.9289 6.84315C13.5384 6.45263 13.5384 5.81947 13.9289 5.42894C14.3195 5.03842 14.9526 5.03842 15.3431 5.42894L19.2071 9.2929C19.5976 9.68343 19.5976 10.3166 19.2071 10.7071L15.3431 14.5711C14.9526 14.9616 14.3195 14.9616 13.9289 14.5711C13.5384 14.1806 13.5384 13.5474 13.9289 13.1569L16.0858 11L7.91421 11L10.0711 13.1569C10.4616 13.5474 10.4616 14.1806 10.0711 14.5711C9.68054 14.9616 9.04738 14.9616 8.65685 14.5711L4.79289 10.7071Z" fill="#C3DBCD"/>
<rect x="17.5" y="19" width="18" height="2" rx="1" transform="rotate(-90 17.5 19)" fill="#C3DBCD"/>
</svg>
