<svg width="24" height="24" viewBox="0 0 24 24" fill="none" xmlns="http://www.w3.org/2000/svg">
<rect x="3" y="4.5" width="18" height="2" rx="1" fill="#C3DBCD"/>
<path fill-rule="evenodd" clip-rule="evenodd" d="M11.2929 4.79289C11.6835 4.40237 12.3166 4.40237 12.7072 4.79289L16.5711 8.65685C16.9616 9.04738 16.9616 9.68054 16.5711 10.0711C16.1806 10.4616 15.5474 10.4616 15.1569 10.0711L13.0001 7.91421L13.0001 16.0858L15.1569 13.9289C15.5474 13.5384 16.1806 13.5384 16.5711 13.9289C16.9616 14.3195 16.9616 14.9526 16.5711 15.3431L12.7072 19.2071C12.3166 19.5976 11.6835 19.5976 11.2929 19.2071L7.42898 15.3431C7.03846 14.9526 7.03846 14.3195 7.42898 13.9289C7.81951 13.5384 8.45267 13.5384 8.8432 13.9289L11.0001 16.0858L11.0001 7.91421L8.8432 10.0711C8.45267 10.4616 7.81951 10.4616 7.42898 10.0711C7.03846 9.68054 7.03846 9.04738 7.42898 8.65685L11.2929 4.79289Z" fill="#C3DBCD"/>
<rect x="3" y="17.5" width="18" height="2" rx="1" fill="#C3DBCD"/>
</svg>
