<svg width="24" height="24" viewBox="0 0 24 24" fill="none" xmlns="http://www.w3.org/2000/svg">
<path d="M5.37891 4.08398H6.10547C6.16016 4.16992 6.19922 4.23242 6.22266 4.27148C6.44141 4.64648 6.60938 4.89258 6.72656 5.00977C6.82812 5.04102 7.36328 5.05664 8.33203 5.05664C8.93359 5.05664 9.46875 5.05273 9.9375 5.04492L10.1719 5.00977L11.5898 4.99805L14.2383 5.02148H17.8594L18.5508 4.91602C18.6523 4.8457 18.7617 4.6582 18.8789 4.35352C18.9102 4.2832 18.9531 4.18555 19.0078 4.06055L19.5234 4.04883C19.6016 4.04883 19.7188 4.05273 19.875 4.06055C19.8828 4.59961 19.8867 5.41211 19.8867 6.49805L19.8984 7.54102L19.8867 8.13867C19.8867 8.3418 19.8711 8.51758 19.8398 8.66602C19.5195 8.76758 19.2383 8.83008 18.9961 8.85352C18.793 8.54883 18.5703 8.10742 18.3281 7.5293C18.0938 6.95117 17.9453 6.63086 17.8828 6.56836C17.7891 6.4668 17.6797 6.40039 17.5547 6.36914C17.3672 6.33008 16.5391 6.31055 15.0703 6.31055C14.8516 6.31055 14.5781 6.32617 14.25 6.35742C14.2031 6.66211 14.1797 6.91211 14.1797 7.10742L14.1914 8.67773V12.123L14.2383 15.8379L14.2266 17.3613C14.2266 17.9004 14.2734 18.3066 14.3672 18.5801C14.4922 18.6348 14.7227 18.6855 15.0586 18.7324C15.1211 18.7402 15.4102 18.8027 15.9258 18.9199C16.1602 18.9746 16.3672 19.0371 16.5469 19.1074C16.5859 19.3887 16.6055 19.5605 16.6055 19.623C16.6055 19.6934 16.5938 19.7949 16.5703 19.9277C16.3984 19.9355 16.2578 19.9395 16.1484 19.9395C15.3438 19.9395 14.6602 19.9121 14.0977 19.8574C13.5352 19.7949 12.5156 19.7637 11.0391 19.7637C10.8047 19.7637 10.1172 19.8105 8.97656 19.9043C8.53125 19.9355 8.24219 19.9512 8.10938 19.9512C8.10156 19.834 8.09375 19.7441 8.08594 19.6816L8.07422 19.4121V19.3184C8.24609 19.0918 8.57031 18.9238 9.04688 18.8145C9.85938 18.6191 10.4219 18.4434 10.7344 18.2871C10.8125 18.1387 10.8594 17.9434 10.875 17.7012C10.9297 16.7637 10.957 15.2715 10.957 13.2246L10.8984 8.79492C10.8984 7.57617 10.875 6.83789 10.8281 6.58008C10.8125 6.50977 10.7852 6.45898 10.7461 6.42773C10.707 6.38867 10.6523 6.36523 10.582 6.35742C10.3398 6.32617 9.55078 6.31055 8.21484 6.31055C7.48047 6.31055 6.98828 6.38086 6.73828 6.52148C6.40234 6.7168 5.89844 7.24805 5.22656 8.11523C5.03125 8.36523 4.88672 8.49023 4.79297 8.49023C4.43359 8.30273 4.20312 8.15039 4.10156 8.0332C4.34375 7.52539 4.67969 6.50977 5.10938 4.98633C5.23438 4.54102 5.32422 4.24023 5.37891 4.08398Z" fill="#C3DBCD"/>
</svg>
